<?xml version="1.0" encoding="UTF-8"?>
<!DOCTYPE svg PUBLIC "-//W3C//DTD SVG 1.1//EN" "http://www.w3.org/Graphics/SVG/1.1/DTD/svg11.dtd">
<!-- Creator: CorelDRAW 2019 (64-Bit) -->
<svg xmlns="http://www.w3.org/2000/svg" xml:space="preserve" width="160mm" height="150mm" version="1.1" style="shape-rendering:geometricPrecision; text-rendering:geometricPrecision; image-rendering:optimizeQuality; fill-rule:evenodd; clip-rule:evenodd"
viewBox="0 0 16000 15000"
 xmlns:xlink="http://www.w3.org/1999/xlink"
 xmlns:xodm="http://www.corel.com/coreldraw/odm/2003">
 <defs>
  <style type="text/css">
   <![CDATA[
    .str0 {stroke:#D7B56D;stroke-width:7.62;stroke-miterlimit:22.9256}
    .fil0 {fill:#D7B56D}
    .fil1 {fill:#D7B56D;fill-rule:nonzero}
   ]]>
  </style>
 </defs>
 <g id="Слой_x0020_1">
  <metadata id="CorelCorpID_0Corel-Layer"/>
  <g id="_1741138962512">
   <path class="fil0 str0" d="M9036.49 7852.73c0,0 204.29,-131.27 453.98,-109.39 249.69,21.88 419.94,87.53 431.29,98.46 11.36,10.93 22.69,54.71 -113.5,98.46 -136.19,43.75 -283.75,87.5 -476.68,43.75 -192.94,-43.75 -261.04,-76.57 -295.09,-131.28zm261.57 -481.64c0,0 -2.18,179.24 -117.17,324.18 -114.99,144.94 -197.35,157.52 -201.16,146.53 -14.08,-40.67 -6.89,-234.4 68.1,-306.32 105.39,-101.09 202.68,-165.65 250.23,-164.39zm261.25 189.37c0,0 172.65,-170.75 421.46,-201.09 248.8,-30.34 428.96,-1.39 442.33,6.95 13.37,8.34 33.53,48.82 -90.64,119.84 -124.17,71.02 -259.45,144.4 -457.27,141.58 -197.82,-2.82 -271.24,-20.81 -315.88,-67.28zm156.08 -525.38c0,0 35.01,175.79 -47.45,341.41 -82.45,165.63 -160.42,195 -166.42,185.04 -22.21,-36.87 -55.32,-227.89 3.14,-313.79 82.16,-120.73 163.95,-204.05 210.73,-212.66zm373.08 156.39c0,0 120.95,-210.56 352.68,-306.07 231.74,-95.51 413.1,-115.58 428.21,-111.1 15.11,4.48 45.33,38.12 -55.44,139.65 -100.77,101.52 -211.63,208.28 -403.06,258.25 -191.42,49.96 -266.98,52.17 -322.39,19.27zm-160.02 -552.72c0,0 123.22,130.17 141.59,314.27 18.38,184.1 -31.98,250.48 -42.37,245.23 -38.43,-19.39 -168.15,-163.46 -164.39,-267.29 5.27,-145.94 30.16,-260.02 65.17,-292.21zm403.96 121.91c0,0 88.64,-226.08 303.79,-354.66 215.15,-128.58 391.58,-175.13 407.19,-172.93 15.61,2.21 50.44,31.04 -34.28,146.3 -84.73,115.25 -178.66,237.16 -360.65,314.76 -181.99,77.6 -256.4,90.91 -316.05,66.53zm-239.64 -523.16c0,0 141.05,110.62 186.32,290.01 45.27,179.39 5.23,252.46 -5.82,248.8 -40.86,-13.52 -190.37,-136.93 -201.94,-240.19 -16.27,-145.12 -8.45,-261.62 21.44,-298.62zm378.1 32.43c0,0 81.82,-228.63 293.03,-363.6 211.2,-134.97 386.16,-186.78 401.82,-185.04 15.67,1.73 51.35,29.51 -29.88,147.25 -81.24,117.74 -171.48,242.41 -351.06,325.43 -179.58,83.01 -253.56,98.54 -313.91,75.96zm-255.2 -515.74c0,0 144.29,106.34 194.92,284.29 50.62,177.96 12.79,252.19 1.64,248.87 -41.25,-12.29 -194.4,-131.17 -209.05,-234.03 -20.61,-144.57 -16.28,-261.25 12.49,-299.13zm388.76 34.59c0,0 52.08,-219.73 233.37,-366.21 181.29,-146.48 337.65,-212.38 352.3,-212.39 14.66,-0.01 50.5,21.99 -12.45,139.17 -62.96,117.18 -133.52,241.69 -290.93,336.9 -157.42,95.21 -224.19,117.18 -282.29,102.53zm-288.96 -450.36c0,0 144.3,83.42 209.41,242.67 65.11,159.25 37.79,231.74 27.14,229.82 -39.38,-7.11 -193.16,-101.2 -217.3,-194.76 -33.92,-131.48 -41.94,-239.77 -19.25,-277.73zm316.25 -26.73c0,0 40.21,-216 209.46,-366.94 169.25,-150.93 318.08,-222.38 332.32,-223.08 14.24,-0.7 50.11,18.98 -5.52,135.84 -55.63,116.85 -118.31,241.19 -266.78,341.18 -148.47,99.98 -212.33,124.48 -269.48,113zm-264.94 -380.37c0,0 130.14,67 194.07,203.92 63.92,136.91 43.04,201.67 33.62,200.44 -34.85,-4.56 -173.76,-80.52 -198.93,-161.56 -35.38,-113.89 -47.04,-208.53 -28.76,-242.8zm257.58 -52.19c0,0 10.12,-197.95 143.41,-353.16 133.29,-155.2 257.83,-236.88 270.48,-239.22 12.65,-2.32 47.08,10.98 11.31,122.13 -35.77,111.14 -76.95,229.82 -197.75,336.97 -120.8,107.16 -174.97,136.71 -227.45,133.28zm-288.14 -343.21c0,0 125.07,53.28 193.52,175.79 68.45,122.5 53.49,183.89 44.68,183.39 -32.59,-1.87 -166.38,-62.86 -195.17,-136.22 -40.46,-103.1 -57.65,-189.98 -43.03,-222.96zm202.21 -47.93c0,0 -19.68,-179.34 77.52,-338.17 97.21,-158.84 197.24,-250.34 208.27,-254.27 11.03,-3.93 43.9,3.02 27.91,108.09 -15.98,105.07 -35.73,217.69 -128.7,331.53 -92.97,113.85 -137.35,148.28 -185,152.82zm-295.85 -288.14c0,0 119.07,33.72 194.96,136.46 75.9,102.73 69.45,159.89 61.44,160.45 -29.64,2.06 -157.47,-37.62 -191.9,-100.55 -48.39,-88.44 -73.9,-164.91 -64.5,-196.36zm189.06 -134.65c0,0 -41.2,-175.65 36.12,-345.06 77.31,-169.41 165.55,-272.32 176.03,-277.56 10.47,-5.23 43.94,-2.3 40.76,103.93 -3.18,106.23 -9.18,220.41 -87.72,344.65 -78.54,124.24 -118.43,163.78 -165.19,174.04zm-368.47 -188.27c0,0 123.74,-1.2 225.51,75.98 101.78,77.17 111.71,133.83 104.18,136.62 -27.86,10.33 -161.68,8.3 -212.46,-42.38 -71.35,-71.21 -117.39,-137.38 -117.23,-170.22zm176.93 -159.61c0,0 -46.68,-151.96 11.19,-305.49 57.87,-153.52 129.31,-249.24 138.21,-254.48 8.89,-5.22 38.49,-4.64 42.03,88.94 3.53,93.57 5.06,194.3 -56.58,308.2 -61.65,113.89 -94.36,151.02 -134.85,162.83zm-335.13 -143.56c0,0 108.7,-8.43 202.77,53.36 94.07,61.78 106.17,110.99 99.71,113.9 -23.87,10.74 -141.63,16.92 -189.28,-24.6 -66.97,-58.35 -111.38,-113.78 -113.2,-142.66zm163.3 -165.73c0,0 -71.64,-141.89 -40.51,-302.99 31.14,-161.09 85.41,-267.49 93.29,-274.15 7.89,-6.65 37.16,-11.07 56.43,80.57 19.27,91.63 37.77,190.66 -3.77,313.32 -41.54,122.67 -67.52,164.79 -105.44,183.25zm-344.22 -118.26c0,0 107.5,-18.19 206.75,34.88 99.25,53.05 115.73,100.98 109.57,104.45 -22.81,12.85 -139.54,29.61 -190.74,-7.45 -71.95,-52.08 -121.17,-103.29 -125.58,-131.88zm114.65 -166.9c0,0 -81.27,-131.66 -64.45,-290.48 16.82,-158.82 60.61,-266.52 67.71,-273.63 7.09,-7.1 35.12,-13.82 61.42,73.45 26.3,87.27 52.46,181.77 22.36,304.19 -30.1,122.41 -51.79,165.41 -87.04,186.47zm-357.2 -91.36c0,0 102.75,-26.56 203.41,16.65 100.66,43.22 120.63,88.33 114.93,92.21 -21.05,14.35 -132.86,40.3 -185.59,8.61 -74.11,-44.53 -126.1,-90.11 -132.75,-117.47zm88.11 -202.39c0,0 -68.3,-110.65 -54.16,-244.12 14.13,-133.47 50.93,-223.98 56.9,-229.95 5.96,-5.97 29.51,-11.62 51.61,61.72 22.1,73.34 44.09,152.76 18.8,255.63 -25.3,102.88 -43.53,139.02 -73.15,156.72zm-303.4 -21.31c0,0 81.64,-35.9 170.97,-13.64 89.33,22.26 111.98,56.98 107.78,60.97 -15.52,14.75 -104.76,51.36 -152.78,32.19 -67.48,-26.94 -116.76,-57.72 -125.97,-79.52zm37.03 -191.1c0,0 -76.03,-105.49 -71.46,-239.62 4.56,-134.14 34.81,-227.05 40.33,-233.43 5.52,-6.38 28.61,-13.7 55.89,57.88 27.28,71.57 54.89,149.22 37.01,253.63 -17.89,104.42 -33.49,141.77 -61.77,161.54zm-279.18 -19.35c0,0 77.58,-28.24 158.74,-2.28 81.17,25.95 100,59.39 95.88,62.82 -15.23,12.69 -99.88,41.12 -143.07,20.51 -60.71,-28.95 -104.36,-60.37 -111.55,-81.05zm-177.15 -122.04c0,0 86.73,-37.24 143,-31 56.26,6.24 50.78,5.08 66.29,12.44 -26.12,-20.74 -42.94,-28.29 -73.45,-93.41 -30.51,-65.13 -50.27,-151.68 -48.86,-157.38 1.4,-5.7 13.39,-17.54 52.93,18.17 39.55,35.71 81.22,75.09 103.18,145.43 21.95,70.35 24.1,98.43 12.83,119.62 -2.46,-1.26 -195.33,88.64 -255.92,-13.87zm69.22 -90.6c0,0 -59.26,14 -116.31,-16.67 -57.05,-30.66 -91.67,-64.86 -93.43,-68.86 -1.75,-4 -0.73,-16.61 35.08,-14.47 35.82,2.13 74.31,5.4 116.13,36.13 41.82,30.73 55.11,46.13 58.53,63.87zm-1952.61 5468.01c0,0 -204.3,-131.27 -453.99,-109.39 -249.69,21.88 -419.93,87.53 -431.29,98.46 -11.35,10.93 -22.69,54.71 113.5,98.46 136.19,43.75 283.75,87.5 476.69,43.75 192.94,-43.75 261.04,-76.57 295.09,-131.28zm-261.57 -481.64c0,0 2.18,179.24 117.16,324.18 114.99,144.94 197.36,157.52 201.16,146.53 14.08,-40.67 6.89,-234.4 -68.09,-306.32 -105.4,-101.09 -202.68,-165.65 -250.23,-164.39zm-261.25 189.37c0,0 -172.66,-170.75 -421.46,-201.09 -248.8,-30.34 -428.96,-1.39 -442.33,6.95 -13.38,8.34 -33.54,48.82 90.63,119.84 124.17,71.03 259.45,144.4 457.27,141.58 197.82,-2.82 271.24,-20.81 315.89,-67.28zm-156.09 -525.38c0,0 -35.01,175.79 47.45,341.41 82.46,165.63 160.43,195 166.43,185.04 22.2,-36.87 55.31,-227.89 -3.14,-313.79 -82.16,-120.73 -163.96,-204.05 -210.74,-212.66zm-373.07 156.4c0,0 -120.95,-210.57 -352.69,-306.08 -231.74,-95.51 -413.1,-115.58 -428.21,-111.1 -15.11,4.48 -45.32,38.12 55.45,139.65 100.77,101.53 211.63,208.28 403.05,258.25 191.42,49.96 266.99,52.17 322.4,19.28zm160.02 -552.73c0,0 -123.22,130.17 -141.6,314.27 -18.37,184.1 31.99,250.48 42.38,245.23 38.42,-19.39 168.14,-163.46 164.39,-267.29 -5.28,-145.94 -30.16,-260.02 -65.17,-292.21zm-403.97 121.91c0,0 -88.63,-226.08 -303.79,-354.66 -215.15,-128.58 -391.58,-175.13 -407.18,-172.93 -15.61,2.21 -50.45,31.04 34.28,146.3 84.72,115.25 178.66,237.16 360.64,314.76 181.99,77.6 256.4,90.91 316.05,66.53zm239.64 -523.16c0,0 -141.04,110.62 -186.31,290.01 -45.28,179.39 -5.23,252.46 5.81,248.8 40.86,-13.52 190.38,-136.93 201.95,-240.18 16.26,-145.13 8.44,-261.63 -21.45,-298.63zm-378.1 32.43c0,0 -81.82,-228.63 -293.02,-363.6 -211.21,-134.97 -386.16,-186.78 -401.83,-185.04 -15.66,1.73 -51.35,29.51 29.89,147.25 81.23,117.74 171.48,242.41 351.05,325.43 179.58,83.01 253.56,98.54 313.91,75.96zm255.21 -515.74c0,0 -144.29,106.34 -194.92,284.29 -50.63,177.96 -12.79,252.19 -1.64,248.87 41.25,-12.3 194.39,-131.17 209.05,-234.03 20.61,-144.57 16.28,-261.25 -12.49,-299.13zm-388.76 34.59c0,0 -52.08,-219.73 -233.37,-366.21 -181.3,-146.48 -337.65,-212.38 -352.31,-212.39 -14.65,-0.01 -50.49,21.99 12.46,139.17 62.95,117.18 133.51,241.69 290.93,336.9 157.41,95.21 224.19,117.18 282.29,102.53zm288.96 -450.36c0,0 -144.3,83.42 -209.42,242.66 -65.11,159.25 -37.78,231.75 -27.14,229.83 39.39,-7.11 193.16,-101.2 217.3,-194.76 33.93,-131.48 41.94,-239.76 19.26,-277.73zm-316.25 -26.73c0,0 -40.21,-216 -209.46,-366.94 -169.26,-150.93 -318.08,-222.38 -332.33,-223.08 -14.24,-0.7 -50.11,18.98 5.52,135.83 55.63,116.86 118.31,241.2 266.79,341.19 148.47,99.98 212.32,124.49 269.48,113zm264.94 -380.38c0,0 -130.15,67.02 -194.07,203.93 -63.92,136.91 -43.05,201.67 -33.63,200.44 34.85,-4.56 173.76,-80.52 198.94,-161.56 35.38,-113.89 47.03,-208.53 28.76,-242.81zm-257.58 -52.19c0,0 -10.13,-197.94 -143.42,-353.15 -133.29,-155.2 -257.82,-236.88 -270.47,-239.21 -12.65,-2.33 -47.08,10.97 -11.31,122.11 35.77,111.15 76.94,229.83 197.75,336.99 120.8,107.15 174.96,136.71 227.45,133.26zm288.14 -343.2c0,0 -125.08,53.29 -193.52,175.78 -68.46,122.51 -53.49,183.9 -44.69,183.4 32.6,-1.87 166.39,-62.86 195.17,-136.22 40.46,-103.1 57.65,-189.98 43.04,-222.96zm-202.21 -47.94c0,0 19.68,-179.33 -77.53,-338.16 -97.21,-158.84 -197.24,-250.34 -208.26,-254.27 -11.03,-3.93 -43.9,3.02 -27.92,108.09 15.99,105.06 35.74,217.69 128.71,331.53 92.97,113.85 137.34,148.28 185,152.81zm295.84 -288.13c0,0 -119.06,33.72 -194.95,136.46 -75.9,102.73 -69.45,159.89 -61.44,160.45 29.64,2.06 157.46,-37.62 191.89,-100.55 48.39,-88.44 73.9,-164.9 64.5,-196.36zm-189.05 -134.65c0,0 41.19,-175.65 -36.12,-345.06 -77.31,-169.41 -165.56,-272.32 -176.03,-277.56 -10.47,-5.23 -43.94,-2.3 -40.76,103.93 3.18,106.22 9.18,220.41 87.72,344.65 78.54,124.24 118.42,163.78 165.19,174.04zm368.47 -188.27c0,0 -123.74,-1.2 -225.52,75.97 -101.78,77.18 -111.71,133.84 -104.17,136.63 27.85,10.33 161.68,8.3 212.45,-42.37 71.36,-71.22 117.39,-137.39 117.24,-170.23zm-176.93 -159.61c0,0 46.68,-151.96 -11.2,-305.48 -57.87,-153.53 -129.31,-249.25 -138.2,-254.48 -8.9,-5.23 -38.5,-4.65 -42.03,88.93 -3.53,93.57 -5.06,194.3 56.58,308.2 61.64,113.89 94.36,151.02 134.85,162.83zm335.12 -143.56c0,0 -108.7,-8.43 -202.76,53.36 -94.07,61.77 -106.17,110.99 -99.72,113.9 23.87,10.74 141.63,16.92 189.28,-24.6 66.98,-58.35 111.38,-113.78 113.2,-142.66zm-163.3 -165.73c0,0 71.65,-141.89 40.51,-302.99 -31.14,-161.09 -85.4,-267.49 -93.29,-274.15 -7.88,-6.65 -37.15,-11.07 -56.42,80.57 -19.27,91.63 -37.78,190.66 3.76,313.32 41.54,122.67 67.52,164.79 105.44,183.25zm344.22 -118.26c0,0 -107.5,-18.18 -206.74,34.87 -99.25,53.06 -115.74,100.99 -109.57,104.46 22.81,12.85 139.53,29.61 190.73,-7.45 71.95,-52.08 121.17,-103.28 125.58,-131.88zm-114.64 -166.9c0,0 81.26,-131.66 64.44,-290.48 -16.82,-158.82 -60.61,-266.52 -67.71,-273.62 -7.09,-7.11 -35.11,-13.83 -61.41,73.44 -26.3,87.27 -52.47,181.78 -22.37,304.19 30.1,122.41 51.8,165.41 87.05,186.47zm357.19 -91.36c0,0 -102.75,-26.56 -203.4,16.65 -100.66,43.22 -120.63,88.33 -114.94,92.21 21.05,14.35 132.86,40.3 185.59,8.62 74.11,-44.54 126.1,-90.12 132.75,-117.48zm-88.1 -202.39c0,0 68.29,-110.65 54.16,-244.12 -14.14,-133.47 -50.94,-223.98 -56.9,-229.95 -5.97,-5.98 -29.51,-11.62 -51.62,61.72 -22.1,73.34 -44.09,152.76 -18.79,255.63 25.29,102.88 43.53,139.02 73.15,156.72zm303.39 -21.31c0,0 -81.64,-35.9 -170.97,-13.64 -89.32,22.26 -111.98,56.98 -107.78,60.97 15.53,14.75 104.77,51.36 152.78,32.19 67.49,-26.94 116.76,-57.72 125.97,-79.52zm-37.02 -191.1c0,0 76.02,-105.49 71.46,-239.62 -4.57,-134.14 -34.81,-227.05 -40.34,-233.43 -5.51,-6.38 -28.6,-13.7 -55.88,57.88 -27.29,71.57 -54.89,149.22 -37.01,253.64 17.88,104.41 33.49,141.76 61.77,161.53zm279.18 -19.36c0,0 -77.58,-28.23 -158.75,-2.27 -81.17,25.95 -99.99,59.39 -95.87,62.82 15.23,12.69 99.87,41.12 143.06,20.52 60.71,-28.96 104.36,-60.38 111.56,-81.07zm177.15 -122.03c0,0 -86.74,-37.24 -143,-31 -56.27,6.24 -50.78,5.08 -66.3,12.44 26.13,-20.74 42.95,-28.29 73.46,-93.41 30.51,-65.13 50.26,-151.68 48.86,-157.38 -1.4,-5.7 -13.39,-17.54 -52.94,18.17 -39.54,35.71 -81.21,75.09 -103.17,145.43 -21.96,70.35 -24.1,98.43 -12.84,119.62 2.47,-1.26 195.33,88.64 255.93,-13.87zm-69.22 -90.6c0,0 59.26,14 116.31,-16.67 57.05,-30.66 91.66,-64.86 93.42,-68.86 1.76,-4 0.74,-16.6 -35.08,-14.47 -35.81,2.13 -74.31,5.4 -116.12,36.13 -41.82,30.73 -55.12,46.13 -58.53,63.87zm921.95 979.21c45.28,0 81.97,36.7 81.97,81.97 0,45.27 -36.69,81.97 -81.97,81.97 -45.26,0 -81.96,-36.7 -81.96,-81.97 0,-45.27 36.7,-81.97 81.96,-81.97zm-1433.33 1376.79c148.76,-87.51 299.84,-172.85 451.63,-254.91 113.59,-61.41 232.05,-124.88 350.71,-175.72 94.17,-40.34 187.09,-85.61 283.85,-119.4 182.79,-63.83 347.29,-69.97 537.89,-38.42 220.54,36.5 413.63,125.43 605.46,236.51 173.55,100.5 340.32,215.71 520.72,303.64 32.08,15.63 64.59,30.37 97.59,43.94l31.39 12.9 9.06 32.7c19.2,69.26 -41.67,345.51 -58.88,420.6 -17.41,75.94 -36.95,152.61 -61.21,226.67 -43.7,133.38 -87.92,262.63 -142.42,392.29 -87.11,207.24 -192.28,406.91 -306.37,600.46 -115.48,195.89 -253.33,380.68 -415.36,540.62 -50.28,49.64 -102.86,96.76 -157.81,141.17 -29.66,23.96 -60.48,46.27 -90.08,70.04 -18.66,14.99 -36.81,30.68 -55.18,46.03 -28.29,23.64 -58.32,48.18 -90.2,66.75 -39.56,23.03 -85.88,37.38 -129.54,15.47 -54.52,-27.36 -114.24,-71.18 -162.26,-108.33 -99.28,-76.79 -191.8,-164.24 -276.11,-257.12 -69.98,-77.09 -142.18,-152.81 -209.17,-232.5 -115.47,-137.35 -202.14,-279.31 -283.62,-438.99 -87.35,-171.19 -179.96,-343.56 -252.73,-521.48 -41.83,-102.27 -76.18,-206 -104.39,-312.82 -14.35,-54.36 -29.57,-108.36 -45.43,-162.29 -10.75,-36.54 -21.8,-73.08 -31.18,-110.01 -28.81,-113.36 -39.36,-235.42 -50.23,-351.59l-4.1 -43.87 37.97 -22.34zm35.16 59.76c0,0 539.11,-317.26 794.48,-426.66 255.36,-109.41 420.77,-213.14 783.12,-153.16 477.81,79.08 801.44,412.4 1208.74,579.82 12.31,44.42 -51.07,399.3 -119.17,607.17 -68.1,207.86 -158.89,497.78 -442.64,979.13 -283.74,481.35 -578.83,678.28 -646.93,732.98 -68.09,54.7 -156.82,142.21 -200.42,120.34 -43.6,-21.88 -219.52,-131.29 -418.13,-350.09 -198.62,-218.8 -312.12,-322.74 -482.37,-656.4 -170.24,-333.66 -272.4,-519.64 -351.84,-820.49 -79.44,-300.85 -91.23,-253.27 -124.84,-612.64zm-158.18 -268.89c151.52,-89.13 304.61,-175.61 459.25,-259.22 121.57,-65.72 243.41,-130.84 370.56,-185.31 99.71,-42.72 196.76,-89.6 299.41,-125.44 220.95,-77.16 427.8,-86.76 657.51,-48.74 249.21,41.25 470.31,140.21 687.42,265.93 168.4,97.51 330.48,210.22 505.44,295.5 27.45,13.38 55.93,24.55 83.53,37.63l204.87 97.09c0,268.03 -10.81,350 -79.05,647.74 -19.14,83.51 -40.44,166.54 -67.13,248 -45.38,138.51 -92.81,276.34 -149.32,410.77 -91.4,217.44 -201.32,426.58 -321.03,629.66 -126.28,214.22 -276.76,415.2 -453.92,590.08 -55.96,55.25 -114.61,107.79 -175.77,157.21 -29.79,24.07 -60.8,46.53 -90.63,70.49 -17.45,14.02 -34.38,28.72 -51.56,43.07 -65.59,54.8 -257.13,195.57 -331.07,195.07 -48.52,-0.33 -306.23,-177.77 -354.95,-215.46 -110.81,-85.71 -213.2,-182.28 -307.32,-285.97 -72.16,-79.49 -146.12,-157.22 -215.24,-239.44 -125.4,-149.16 -225.63,-311.62 -314.02,-484.86 -90.94,-178.25 -185.33,-354.45 -261.18,-539.89 -45.64,-111.59 -83.63,-226.19 -114.4,-342.74 -13.77,-52.13 -28.4,-104.04 -43.62,-155.77 -11.61,-39.46 -23.44,-78.83 -33.57,-118.72 -32.49,-127.87 -44.39,-257.83 -56.64,-388.74l-18.47 -197.41 170.9 -100.53zm87.87 149.38c149.73,-88.07 301.01,-173.53 453.81,-256.14 116.76,-63.12 234.29,-126.16 356.38,-178.46 95.89,-41.08 189.64,-86.68 288.3,-121.13 193.74,-67.65 370.73,-74.69 572.06,-41.37 228.42,37.81 430,129.76 628.88,244.92 172.22,99.72 337.27,214.03 516.36,301.31 51.49,25.1 117.23,55.38 170.1,77.11 29.63,180.7 -13.21,333.96 -53.75,510.84 -17.95,78.32 -37.87,156.37 -62.9,232.76 -43.94,134.12 -89.67,267.39 -144.39,397.57 -88.37,210.22 -194.83,412.47 -310.56,608.81 -118.6,201.19 -259.97,390.48 -426.37,554.75 -51.89,51.22 -106.24,99.93 -162.95,145.75 -29.65,23.96 -60.53,46.31 -90.23,70.17 -18.33,14.72 -36.11,30.11 -54.15,45.19 -203.13,169.7 -263.27,134.55 -468.86,-24.48 -102.71,-79.44 -197.8,-169.27 -285.03,-265.37 -70.67,-77.84 -143.22,-153.97 -210.91,-234.48 -117.62,-139.91 -209.41,-289.64 -292.3,-452.1 -88.66,-173.76 -181.22,-345.97 -255.15,-526.73 -42.82,-104.7 -78.37,-212.02 -107.25,-321.38 -14.17,-53.69 -29.24,-107.14 -44.91,-160.42 -11,-37.39 -22.26,-74.71 -31.86,-112.5 -30.07,-118.33 -40.72,-240.97 -52.06,-362.2l-8.21 -87.74 75.95 -44.68zm762.64 -1324.57c0,0 127.04,95.46 190.1,109.39 63.05,13.93 133.37,2.18 150.39,-75.49 17.02,-77.67 27.27,-201.41 22.69,-230.82 -4.57,-29.41 59.62,54.69 113.51,82.04 53.88,27.35 96.74,53.41 147.53,-16.41 50.8,-69.82 81.74,-298.82 79.45,-328.19 -2.28,-29.38 34.05,240.67 68.1,289.9 34.05,49.23 36.23,71.12 82.09,71.12 45.85,0 71.13,-10.96 116.53,-54.71 45.4,-43.75 73.77,-65.64 73.77,-65.64 0,0 -11.35,81.9 0,146.1 11.36,64.19 22.7,143.81 56.75,160.22 34.05,16.41 80.15,46.93 147.55,21.88 59.34,-22.06 125.96,-109.39 170.24,-109.39 0,0 -68.11,131.29 -113.5,229.74 -45.39,98.45 -89.3,185.97 -136.19,191.45 -46.9,5.47 -170.98,5.47 -170.98,5.47l-0.04 0c249.37,47.37 475.57,148.63 695.13,275.77 165.8,96.01 324.29,206.81 496.71,290.84 27.38,13.35 56,23.94 83.36,37.56l304.41 151.52 0 42.93c0,162.95 -25.13,337.98 -54.18,498.2 -29.63,163.49 -67.76,333.59 -119.51,491.57 -44.53,135.9 -98.77,266.15 -154.11,397.82 -93.81,223.16 -206.54,437.91 -329.4,646.34 -132.4,224.6 -290.23,434.99 -475.96,618.35 -59.23,58.46 -121.31,114.06 -186.04,166.37 -75.08,60.67 -147.74,123.32 -224.36,182.32 -77.58,59.75 -230.3,175.98 -330.83,175.31 -72.28,-0.49 -202.5,-87.56 -262.3,-127.81 -62.41,-42.01 -127.27,-88.17 -184.88,-136.58 -113.04,-95 -230.44,-184.65 -330.07,-294.39 -73.37,-80.83 -141.38,-166.19 -211.6,-249.71 -132.03,-157.05 -245.49,-344.63 -343.04,-524.81 -93.91,-173.47 -179.68,-354.08 -254.36,-536.68 -49.92,-122.05 -103.69,-247.53 -137.37,-375.12 -45.72,-173.17 -83.61,-346.71 -108.1,-524.21 -17.89,-129.64 -28.62,-259.76 -35.26,-390.42l-2.13 -41.97 245.09 -144.18c152.96,-89.98 307.5,-177.27 463.61,-261.68 125.23,-67.7 250.94,-134.68 381.89,-190.79 102.49,-43.9 202.89,-92.08 308.31,-128.89 51.33,-17.93 102.21,-32.57 152.93,-44.13l-0.05 0c0,0 -170.23,-14.48 -181.59,-19.95 -11.35,-5.47 -124.84,-238.82 -141.87,-268.03 -17.03,-29.21 -51.08,-109.4 -62.42,-142.21zm-885.66 1115.44c152.24,-89.56 306.06,-176.45 461.43,-260.45 123.38,-66.71 247.2,-132.77 376.23,-188.05 101.03,-43.29 199.91,-90.87 303.85,-127.17 231.54,-80.86 450.83,-91.55 691.69,-51.68 257.05,42.55 486.79,144.59 710.84,274.33 167.2,96.81 327.22,208.44 501.07,293.17 27.2,13.26 55.73,23.81 82.85,37.3l265.97 132.39c0,271.92 -87.33,715.11 -170.24,968.19 -45.96,140.26 -94.92,256.4 -152.14,392.53 -92.6,220.3 -203.93,432.25 -325.22,638 -129.34,219.42 -283.48,425.09 -464.94,604.22 -57.59,56.86 -117.95,110.93 -180.91,161.79 -113.97,92.1 -397.06,342.99 -511.15,342.22 -70.96,-0.48 -319.46,-177.9 -403.04,-248.13 -110.37,-92.77 -226.47,-181.21 -323.34,-287.92 -72.73,-80.12 -140.2,-164.86 -209.86,-247.72 -226.35,-269.24 -452.32,-715.53 -586.3,-1043.12 -46.77,-114.35 -102.98,-247.14 -134.51,-366.58 -88.33,-334.53 -124.85,-579.81 -141.16,-900.45l208.88 -122.87zm1072.92 175.48c0,0 51.07,-10.95 221.32,-109.4 170.25,-98.46 249.7,-153.16 272.4,-191.45 22.69,-38.29 28.37,-38.29 28.37,-38.29 0,0 107.81,109.39 187.27,158.62 79.45,49.24 327.6,172.04 340.48,176.62 12.89,4.59 -90.79,107.84 -158.89,282.87 -68.09,175.03 -136.21,344.61 -181.59,568.88 -45.39,224.26 -73.77,322.71 -113.49,607.16 -39.73,284.45 -73.78,503.24 -73.78,503.24 0,0 -39.72,-426.65 -79.45,-623.58 -99.29,-492.14 -151.78,-907.5 -442.64,-1334.67zm-334.81 700.16c0,0 113.5,-98.48 136.2,-164.11 22.69,-65.63 56.74,-131.28 56.74,-131.28 0,0 113.49,60.18 204.29,251.62 90.81,191.45 113.5,224.28 181.6,459.49 68.1,235.2 113.49,418.69 124.85,574.6 11.35,155.91 5.67,267.77 5.67,267.77 0,0 -28.38,-97.9 -73.77,-251.62 -45.39,-153.72 -124.84,-382.9 -232.67,-536.06 -107.82,-153.15 -198.6,-251.61 -289.41,-350.07 -90.81,-98.46 -87.6,-91.84 -113.5,-120.34zm-129 606.05c63.31,-99.61 66.87,-80.88 72.26,-190.33 209.33,9.34 646.87,546.42 641.25,831.43 -230.54,-442.62 -395.06,-552.17 -713.51,-641.1zm1854.07 -606.05c0,0 -113.5,-98.48 -136.19,-164.11 -22.7,-65.63 -56.75,-131.28 -56.75,-131.28 0,0 -113.49,60.18 -204.29,251.62 -90.81,191.45 -113.5,224.28 -181.6,459.49 -68.1,235.2 -113.49,418.69 -124.84,574.6 -11.36,155.91 -5.68,267.77 -5.68,267.77 0,0 28.38,-97.9 73.78,-251.62 45.39,-153.72 124.84,-382.9 232.66,-536.06 107.83,-153.15 198.61,-251.61 289.41,-350.07 90.81,-98.46 87.6,-91.84 113.5,-120.34zm129 606.05c-63.31,-99.61 -66.87,-80.88 -72.25,-190.33 -209.34,9.34 -646.88,546.42 -641.26,831.43 230.55,-442.62 395.06,-552.17 713.51,-641.1zm-1751.92 -2673.72c0,0 -90.81,-21.88 -113.5,-76.58 -22.7,-54.7 -22.7,-142.21 -22.7,-142.21 0,0 68.1,10.94 102.15,65.64 34.05,54.69 41.41,77.93 34.05,153.15zm377.3 -240.44c0,0 -87.52,-32.64 -103.49,-89.66 -15.96,-57.02 -5.46,-143.9 -5.46,-143.9 0,0 66.29,19.03 93.53,77.42 27.24,58.39 31.76,82.34 15.42,156.14zm1119.64 240.44c0,0 90.8,-21.88 113.5,-76.58 22.69,-54.7 22.69,-142.21 22.69,-142.21 0,0 -68.1,10.94 -102.14,65.64 -34.05,54.69 -41.42,77.93 -34.05,153.15zm-377.31 -240.44c0,0 87.53,-32.63 103.49,-89.66 15.97,-57.02 5.46,-143.9 5.46,-143.9 0,0 -66.29,19.03 -93.53,77.42 -27.23,58.39 -31.76,82.34 -15.42,156.14zm-370.56 -306.55l-90.79 -100.76 90.79 -161.8 79.46 162.07 -79.46 100.49zm-1373.31 5437.18c0,0 136.2,16.4 317.8,-21.89 181.59,-38.29 385.88,-87.53 533.43,-32.82 147.55,54.71 329.14,169.57 419.94,235.21 90.79,65.64 102.14,71.11 102.14,71.11 0,0 306.43,-240.68 397.24,-268.03 90.8,-27.34 196.47,-71.11 322.58,-60.16 126.1,10.94 238.75,43.26 358.4,65.63 119.64,22.37 295.1,16.41 295.1,16.41 0,0 -194.94,93 -363.46,93 -168.53,0 -278.58,-10.96 -349.66,-21.89 -71.07,-10.93 -217.56,-43.75 -399.15,87.53 -181.59,131.28 -181.59,142.22 -181.59,142.22 0,0 34.04,65.63 113.49,109.39 79.45,43.77 141.88,76.57 158.9,92.99 17.02,16.42 0,49.22 -119.17,-5.47 -119.17,-54.7 -227.97,-120.4 -232.68,-131.28 -4.7,-10.88 -96.46,76.58 -181.59,109.4 -85.13,32.82 -170.24,54.7 -181.59,54.7 -11.35,0 -11.36,-21.88 51.07,-54.7 62.43,-32.82 153.22,-76.57 192.94,-120.33 39.72,-43.77 34.05,-65.64 34.05,-65.64 0,0 -62.41,-76.58 -198.61,-142.23 -136.21,-65.63 -108.45,-87.17 -306.78,-87.51 -198.33,-0.34 -170.81,43.76 -329.01,32.82 -158.21,-10.94 -208.15,-5.47 -296.92,-32.82 -88.77,-27.36 -156.87,-65.64 -156.87,-65.64z"/>
   <path class="fil1 str0" d="M3579.9 9804.92c72.41,10.19 132.43,32.22 179.51,65.81 47.08,33.59 82.32,100.49 106,200.43 22.03,93.61 45.71,155.29 71.04,185.02 25.33,30.01 60.57,46.26 106.27,49.01 25.33,1.38 38,9.64 38,23.95 0,15.7 -20.38,23.41 -61.4,23.41l-310.3 -7.16c-32.48,-32.21 -54.51,-89.76 -66.35,-172.63 -14.87,-106 -30.56,-180.62 -46.8,-224.12 -15.97,-43.77 -40.2,-74.89 -72.42,-93.61 -32.21,-19 -69.65,-28.36 -112.05,-28.36 -12.39,0 -29.46,0.83 -50.94,2.48 0,189.43 0.55,305.89 1.93,349.67 1.37,43.77 10.19,75.44 26.15,94.43 16.25,19 46.81,29.74 91.96,31.94 24.23,1.38 36.35,9.64 36.35,23.95 0,14.6 -10.47,22.03 -31.39,22.03l-247.52 -6.61c-33.31,0 -76.27,1.38 -128.3,4.13 -47.91,2.76 -78.19,3.86 -91.14,3.86 -22.02,0 -33.03,-7.71 -33.03,-23.41 0,-14.86 9.63,-22.57 28.9,-22.57 30.02,0 58.1,-7.44 83.43,-22.58 25.6,-14.87 38.27,-78.74 38.27,-191.08l-0.55 -150.05 0.55 -289.64c0,-149.51 -6.33,-240.64 -19.55,-273.68 -13.21,-33.04 -48.73,-50.11 -106.27,-51.21 -22.58,-0.55 -33.87,-8.53 -33.87,-23.4 0,-15.7 15.14,-23.4 45.15,-23.4 151.71,0 280.29,-3.31 385.74,-9.64 46.8,-3.3 88.93,-4.96 126.65,-4.96 121.97,0 217.78,24.23 287.16,72.96 69.39,48.74 104.08,112.34 104.08,190.81 0,52.58 -16.52,99.94 -49.29,142.07 -32.76,41.84 -73.78,72.96 -123.07,93.61 -49.01,20.37 -106.83,33.31 -172.9,38.54zm-219.44 -33.86c14.04,0.55 24.5,0.82 31.39,0.82 46.8,0 94.16,-8.81 141.52,-26.15 47.63,-17.62 81.22,-45.43 101.04,-83.98 19.55,-38.27 29.46,-79.29 29.46,-123.07 0,-67.18 -20.1,-119.49 -59.74,-157.21 -39.93,-37.72 -91.14,-56.44 -154.19,-56.44 -26.43,0 -56.16,4.95 -89.48,14.59l0 431.44zm1668.21 -481.55c17.34,83.97 34.14,167.67 50.93,251.65 0,15.69 -7.98,23.4 -23.4,23.4 -8.81,0 -18.45,-7.43 -29.18,-22.58 -55.34,-80.67 -106,-133.8 -151.98,-159.68 -45.98,-25.89 -112.34,-38.83 -198.79,-38.83 -48.46,0 -95.26,4.13 -140.42,12.12 -9.63,95.26 -14.59,199.61 -14.59,313.05 0,19.27 0.55,52.03 1.65,97.74l61.4 0.55c38,0 71.04,-5.23 98.84,-15.7 27.54,-10.46 51.21,-32.76 70.49,-66.9 19.27,-34.14 30.28,-55.89 33.04,-65.8 4.95,-17.07 13.21,-25.61 25.05,-25.61 15.14,0 22.58,6.33 22.58,19.27 0,3.86 -0.55,7.99 -1.65,12.94 -6.34,33.32 -9.64,132.99 -9.64,299.28 0,23.13 1.93,44.06 5.51,62.78 1.1,5.5 1.65,9.91 1.65,13.76 0,15.15 -8.54,22.58 -25.61,22.58 -11.84,0 -21.2,-14.32 -27.53,-42.67 -10.74,-50.11 -35.24,-88.11 -73.51,-114.26 -38,-25.89 -98.29,-39.65 -180.62,-40.75 -2.75,90.3 -4.13,149.77 -4.13,178.41 0,122.52 1.93,195.48 5.79,218.61 3.85,23.13 17.34,41.85 41.02,55.89 23.68,14.32 63.87,21.48 120.32,21.48 204.84,0 339.47,-64.98 404.18,-195.21 9.08,-18.17 18.99,-27.53 29.73,-27.53 15.7,0 23.4,6.6 23.4,19.54 0,8.54 -1.65,19.55 -4.95,33.04l-52.31 231.55 -292.13 -0.82c-82.04,-0.55 -158.86,-2.48 -230.17,-5.78 -71.31,-3.03 -126.92,-4.69 -167.4,-4.69 -45.15,0 -113.16,2.48 -204.01,7.99 -11.29,1.1 -19.55,1.65 -25.06,1.65 -25.33,0 -37.99,-8.26 -37.99,-25.05 0,-15.15 10.46,-22.58 30.83,-22.58 52.04,0 87.28,-14.04 105.18,-42.4 17.89,-28.08 26.98,-85.9 26.98,-172.91l4.96 -415.46c0,-142.07 -1.93,-229.35 -5.24,-261.84 -3.58,-32.49 -12.94,-54.51 -27.8,-66.08 -15.15,-11.56 -43.51,-20.37 -84.8,-26.15 -17.08,-2.21 -25.89,-9.64 -25.89,-22.58 0,-16.25 9.92,-24.23 30.02,-24.23l194.38 6.33 650.87 2.48zm790.74 1074.33c-23.68,0 -120.87,-1.38 -291.3,-4.69l-177.58 0.83 -103.8 -1.65c-24.78,0 -40.2,-1.38 -46.53,-4.41 -6.06,-3.02 -9.36,-9.63 -9.36,-19.82 0,-15.69 11.56,-23.4 34.69,-23.4 44.33,0 76.54,-7.44 96.91,-22.58 20.38,-15.14 33.32,-42.68 38.82,-83.15 5.23,-40.2 10.19,-120.59 14.87,-241.18 4.41,-120.32 6.88,-231.28 6.88,-332.32 0,-142.35 -6.88,-229.9 -20.65,-262.39 -13.76,-32.49 -47.63,-50.11 -102.14,-52.86 -19.27,-1.66 -28.91,-9.64 -28.91,-24.23 0,-14.59 8.53,-21.75 25.88,-21.75 10.19,0 44.88,3.03 104.07,8.81 65.53,6.05 111.24,8.81 137.12,8.81l305.61 -6.33c102.15,0 200.44,19.54 295.15,58.36 94.71,39.1 169.88,102.7 225.49,191.36 55.62,88.38 83.43,188.6 83.43,300.38 0,82.87 -16.25,159.96 -48.74,231.82 -32.49,71.86 -79.84,132.16 -141.51,181.17 -61.95,49.01 -123.08,80.95 -183.92,96.36 -60.85,15.42 -132.44,22.86 -214.48,22.86zm-55.07 -58.65c113.16,0 202.37,-39.65 267.9,-118.66 65.52,-79.02 98.29,-191.91 98.29,-338.93 0,-148.95 -35.25,-271.47 -106,-368.11 -70.76,-96.64 -170.98,-144.83 -301.21,-144.83 -44.6,0 -71.31,2.48 -80.4,7.71 -8.81,5.23 -14.31,10.47 -16.52,15.7 -1.92,5.5 -5.23,65.52 -9.63,180.61l-9.64 273.68c-1.65,67.18 -2.48,150.32 -2.48,249.99 0,74.62 3.31,126.1 9.64,154.46 6.61,28.08 20.92,49.84 42.95,65.25 22.03,15.42 57.82,23.13 107.1,23.13z"/>
   <path class="fil1 str0" d="M7131.62 9771.06c111.23,23.67 194.65,59.74 249.99,108.48 55.62,48.73 83.15,110.13 83.15,184.46 0,61.68 -20.37,117.29 -60.85,166.85 -40.74,49.56 -90.3,82.6 -149.22,99.67 -58.92,16.8 -144.55,25.33 -256.88,25.33 -27.54,0 -70.49,-1.65 -129.13,-4.68 -48.46,-2.75 -86.18,-4.13 -113.71,-4.13 -36.62,0 -85.9,2.48 -147.58,7.16 -25.33,2.2 -42.95,3.3 -53.14,3.3 -21.2,0 -31.66,-7.71 -31.66,-23.4 0,-11.84 8.54,-18.72 25.06,-20.92 33.86,-4.41 58.37,-10.19 73.78,-17.35 15.42,-7.16 27.81,-19.55 37.17,-36.62 9.36,-17.34 14.05,-45.15 14.05,-83.97l6.6 -376.65c0,-117.29 -1.37,-210.9 -4.13,-281.11 -2.75,-70.21 -7.43,-115.64 -14.04,-136.01 -6.88,-20.37 -16.24,-34.69 -28.36,-42.68 -12.11,-7.98 -30.28,-12.94 -54.51,-14.59 -21.48,-1.1 -35.24,-3.58 -41.3,-7.16 -6.33,-3.85 -9.36,-9.91 -9.36,-18.72 0,-11.29 6.33,-18.17 19,-20.92 12.66,-2.76 48.18,-3.86 106.82,-3.86 107.66,0 208.15,-3.85 301.76,-11.56 55.34,-4.13 99.67,-6.34 132.98,-6.34 98.85,0 177.86,22.03 237.06,65.81 59.2,43.78 88.93,102.42 88.93,176.21 0,126.92 -94.16,218.06 -282.48,273.4zm-221.64 -12.12c184.74,0 277.25,-79.84 277.25,-239.53 0,-70.49 -16.24,-123.07 -49.01,-157.76 -33.04,-34.7 -71.03,-52.04 -114.53,-52.04 -31.39,0 -69.11,7.71 -113.71,22.58 -4.41,54.51 -6.61,111.23 -6.61,170.42 0,49.84 2.2,135.46 6.61,256.33zm0 62.23c-4.41,113.43 -6.61,208.14 -6.61,283.86 0,99.94 4.13,157.21 12.11,171.8 7.99,14.59 33.59,21.75 76.54,21.75 77.65,0 135.47,-20.65 174.01,-61.95 38.27,-41.57 57.54,-98.56 57.54,-171.25 0,-72.41 -19.82,-132.16 -59.74,-178.41 -39.65,-46.53 -100.22,-69.93 -181.44,-69.93 -17.62,0 -41.85,1.37 -72.41,4.13zm1264.03 -16.25c72.41,10.19 132.43,32.22 179.51,65.81 47.08,33.59 82.32,100.49 106,200.43 22.03,93.61 45.7,155.29 71.03,185.02 25.33,30.01 60.58,46.26 106.28,49.01 25.33,1.38 37.99,9.64 37.99,23.95 0,15.7 -20.37,23.41 -61.39,23.41l-310.3 -7.16c-32.49,-32.21 -54.51,-89.76 -66.35,-172.63 -14.87,-106 -30.56,-180.62 -46.81,-224.12 -15.96,-43.77 -40.19,-74.89 -72.41,-93.61 -32.21,-19 -69.66,-28.36 -112.06,-28.36 -12.39,0 -29.46,0.83 -50.93,2.48 0,189.43 0.55,305.89 1.93,349.67 1.37,43.77 10.18,75.44 26.15,94.43 16.25,19 46.81,29.74 91.96,31.94 24.23,1.38 36.34,9.64 36.34,23.95 0,14.6 -10.46,22.03 -31.38,22.03l-247.52 -6.61c-33.32,0 -76.27,1.38 -128.31,4.13 -47.9,2.76 -78.19,3.86 -91.13,3.86 -22.02,0 -33.04,-7.71 -33.04,-23.41 0,-14.86 9.64,-22.57 28.91,-22.57 30.01,0 58.1,-7.44 83.43,-22.58 25.6,-14.87 38.27,-78.74 38.27,-191.08l-0.55 -150.05 0.55 -289.64c0,-149.51 -6.34,-240.64 -19.55,-273.68 -13.22,-33.04 -48.74,-50.11 -106.28,-51.21 -22.58,-0.55 -33.86,-8.53 -33.86,-23.4 0,-15.7 15.14,-23.4 45.15,-23.4 151.71,0 280.28,-3.31 385.73,-9.64 46.81,-3.3 88.94,-4.96 126.66,-4.96 121.97,0 217.78,24.23 287.16,72.96 69.38,48.74 104.08,112.34 104.08,190.81 0,52.58 -16.52,99.94 -49.29,142.07 -32.76,41.84 -73.79,72.96 -123.07,93.61 -49.01,20.37 -106.83,33.31 -172.9,38.54zm-219.44 -33.86c14.04,0.55 24.5,0.82 31.39,0.82 46.8,0 94.16,-8.81 141.51,-26.15 47.64,-17.62 81.23,-45.43 101.05,-83.98 19.55,-38.27 29.46,-79.29 29.46,-123.07 0,-67.18 -20.1,-119.49 -59.75,-157.21 -39.92,-37.72 -91.13,-56.44 -154.18,-56.44 -26.43,0 -56.17,4.95 -89.48,14.59l0 431.44zm825.98 -492.01c19,0 57.54,1.37 116.19,4.13 44.6,1.92 80.12,3.03 106.55,3.03l247.52 -6.34c21.2,0 31.66,7.16 31.66,21.75 0,12.94 -9.64,20.38 -28.36,22.58 -42.4,4.41 -70.76,12.39 -85.07,23.95 -14.32,11.57 -25.33,38.28 -33.04,80.12 -7.71,41.85 -11.84,136.84 -11.84,284.69 0,169.88 2.75,301.21 8.26,394 5.23,92.78 16.24,150.05 32.49,171.8 16.52,21.75 43.77,32.76 82.04,32.76 26.16,0 39.38,6.89 39.38,20.93 0,19 -14.05,28.36 -42.68,28.36 -7.98,0 -19.82,-0.28 -35.52,-0.83 -101.04,-7.16 -170.15,-10.46 -207.32,-10.46 -81.22,0 -140.97,2.48 -179.79,7.16 -20.37,2.2 -34.96,3.3 -43.5,3.3 -20.1,0 -30.01,-7.98 -30.01,-23.4 0,-12.39 8.54,-19.55 25.06,-21.75 45.7,-6.06 76.54,-18.72 92.51,-38.27 15.69,-19.83 25.33,-66.91 28.63,-141.8 3.03,-74.61 4.68,-190.8 4.68,-348.28 0,-166.3 -3.03,-277.53 -8.81,-333.7 -6.06,-56.17 -15.69,-90.58 -29.46,-103.52 -13.77,-12.94 -39.92,-20.93 -78.74,-24.23 -20.38,-1.65 -30.57,-9.91 -30.57,-25.06 0,-14.04 9.92,-20.92 29.74,-20.92zm1185.28 1084.79c-23.68,0 -120.87,-1.38 -291.29,-4.69l-177.59 0.83 -103.8 -1.65c-24.78,0 -40.2,-1.38 -46.53,-4.41 -6.05,-3.02 -9.36,-9.63 -9.36,-19.82 0,-15.69 11.56,-23.4 34.69,-23.4 44.33,0 76.54,-7.44 96.92,-22.58 20.37,-15.14 33.31,-42.68 38.82,-83.15 5.23,-40.2 10.19,-120.59 14.87,-241.18 4.4,-120.32 6.88,-231.28 6.88,-332.32 0,-142.35 -6.88,-229.9 -20.65,-262.39 -13.77,-32.49 -47.63,-50.11 -102.15,-52.86 -19.27,-1.66 -28.91,-9.64 -28.91,-24.23 0,-14.59 8.54,-21.75 25.88,-21.75 10.19,0 44.88,3.03 104.08,8.81 65.53,6.05 111.23,8.81 137.11,8.81l305.61 -6.33c102.15,0 200.44,19.54 295.16,58.36 94.71,39.1 169.87,102.7 225.49,191.36 55.62,88.38 83.42,188.6 83.42,300.38 0,82.87 -16.24,159.96 -48.73,231.82 -32.49,71.86 -79.84,132.16 -141.52,181.17 -61.95,49.01 -123.07,80.95 -183.92,96.36 -60.84,15.42 -132.43,22.86 -214.48,22.86zm-55.06 -58.65c113.16,0 202.36,-39.65 267.89,-118.66 65.53,-79.02 98.29,-191.91 98.29,-338.93 0,-148.95 -35.24,-271.47 -106,-368.11 -70.76,-96.64 -170.98,-144.83 -301.21,-144.83 -44.6,0 -71.31,2.48 -80.39,7.71 -8.81,5.23 -14.32,10.47 -16.52,15.7 -1.93,5.5 -5.23,65.52 -9.64,180.61l-9.63 273.68c-1.66,67.18 -2.48,150.32 -2.48,249.99 0,74.62 3.3,126.1 9.63,154.46 6.61,28.08 20.93,49.84 42.95,65.25 22.03,15.42 57.82,23.13 107.11,23.13zm1873.05 -942.17l23.4 233.75c1.1,10.74 1.65,19.55 1.65,25.89 0,16.79 -7.16,25.05 -21.75,25.05 -13.49,0 -24.78,-9.36 -33.86,-28.36 -42.13,-86.45 -97.19,-156.93 -165.75,-211.17 -68.56,-54.24 -147.58,-81.5 -236.78,-81.5 -115.09,0 -205.12,48.18 -269.82,144.27 -64.7,96.36 -97.19,210.07 -97.19,341.41 0,146.19 35.79,265.96 107.65,359.3 71.86,93.33 156.39,139.86 253.58,139.86 41.57,0 83.7,-9.63 126.37,-28.63 42.68,-19 70.21,-39.65 82.32,-61.4 12.12,-21.75 18.18,-53.14 18.18,-93.88 0,-90.31 -3.86,-146.75 -11.02,-169.06 -7.16,-22.3 -19.27,-37.72 -35.79,-46.25 -16.79,-8.54 -50.66,-15.97 -101.59,-21.75 -20.1,-2.2 -30.02,-9.91 -30.02,-23.4 0,-15.7 9.37,-23.41 28.36,-23.41l121.7 0 371.96 -8.81c16.52,0 24.78,6.89 24.78,20.93 0,7.98 -3.02,13.49 -9.63,16.52 -6.34,3.03 -28.91,8.53 -67.73,16.52 -28.91,6.33 -47.63,15.97 -55.62,28.91 -7.98,12.94 -14.32,94.16 -18.45,243.66 -1.1,33.31 -2.2,52.04 -3.3,56.17 -1.1,3.85 -33.04,22.3 -95.54,54.79 -62.77,32.49 -127.2,56.71 -193.55,72.68 -66.63,15.7 -132.44,23.68 -198.24,23.68 -110.68,0 -209.52,-21.75 -296.8,-65.25 -87.01,-43.5 -157.21,-105.18 -210.35,-184.47 -53.42,-79.29 -79.85,-173.73 -79.85,-283.59 0,-154.73 53.14,-288.54 159.97,-401.15 106.83,-112.61 253.02,-169.05 438.32,-169.05 65.8,0 125,7.99 177.86,23.95 53.14,15.7 113.16,38.55 180.34,68.01 13.49,6.06 25.05,8.81 34.69,8.81 10.74,0 19.27,-7.71 25.06,-23.4 7.43,-20.38 17.34,-30.56 29.73,-30.56 14.59,0 23.4,17.07 26.71,50.93zm1125.26 -73.51c17.35,83.97 34.14,167.67 50.94,251.65 0,15.69 -7.99,23.4 -23.41,23.4 -8.81,0 -18.44,-7.43 -29.18,-22.58 -55.34,-80.67 -106,-133.8 -151.98,-159.68 -45.98,-25.89 -112.33,-38.83 -198.79,-38.83 -48.45,0 -95.26,4.13 -140.41,12.12 -9.64,95.26 -14.6,199.61 -14.6,313.05 0,19.27 0.55,52.03 1.65,97.74l61.4 0.55c38,0 71.04,-5.23 98.85,-15.7 27.53,-10.46 51.21,-32.76 70.48,-66.9 19.27,-34.14 30.29,-55.89 33.04,-65.8 4.96,-17.07 13.21,-25.61 25.05,-25.61 15.15,0 22.58,6.33 22.58,19.27 0,3.86 -0.55,7.99 -1.65,12.94 -6.33,33.32 -9.64,132.99 -9.64,299.28 0,23.13 1.93,44.06 5.51,62.78 1.1,5.5 1.65,9.91 1.65,13.76 0,15.15 -8.53,22.58 -25.6,22.58 -11.84,0 -21.2,-14.32 -27.54,-42.67 -10.73,-50.11 -35.24,-88.11 -73.51,-114.26 -38,-25.89 -98.29,-39.65 -180.62,-40.75 -2.75,90.3 -4.12,149.77 -4.12,178.41 0,122.52 1.92,195.48 5.78,218.61 3.85,23.13 17.34,41.85 41.02,55.89 23.68,14.32 63.88,21.48 120.32,21.48 204.84,0 339.48,-64.98 404.18,-195.21 9.09,-18.17 19,-27.53 29.73,-27.53 15.7,0 23.41,6.6 23.41,19.54 0,8.54 -1.65,19.55 -4.96,33.04l-52.31 231.55 -292.12 -0.82c-82.05,-0.55 -158.87,-2.48 -230.18,-5.78 -71.31,-3.03 -126.92,-4.69 -167.4,-4.69 -45.15,0 -113.16,2.48 -204.01,7.99 -11.29,1.1 -19.55,1.65 -25.06,1.65 -25.33,0 -37.99,-8.26 -37.99,-25.05 0,-15.15 10.46,-22.58 30.83,-22.58 52.04,0 87.28,-14.04 105.18,-42.4 17.89,-28.08 26.98,-85.9 26.98,-172.91l4.96 -415.46c0,-142.07 -1.93,-229.35 -5.24,-261.84 -3.57,-32.49 -12.94,-54.51 -27.8,-66.08 -15.15,-11.56 -43.51,-20.37 -84.8,-26.15 -17.07,-2.21 -25.89,-9.64 -25.89,-22.58 0,-16.25 9.92,-24.23 30.02,-24.23l194.38 6.33 650.87 2.48z"/>
   <path class="fil1 str0" d="M6919.08 11168.37c147.05,-120.96 90.13,-315.44 -78.27,-398.45 -170.76,-85.38 -524.15,-71.15 -761.33,11.86 -346.27,123.33 -562.1,474.35 -208.71,709.15 177.88,118.59 495.69,203.97 642.74,322.56 286.98,232.43 118.59,640.37 -279.86,849.09 -474.35,246.66 -1325.81,184.99 -1321.07,-403.2 2.37,-151.79 47.44,-310.7 132.82,-443.52 42.69,-68.78 99.61,-128.07 163.65,-177.88 78.27,-59.29 9.49,-49.81 -23.72,-35.57 -232.43,109.09 -417.43,431.65 -405.57,656.97 40.32,668.84 1050.69,735.24 1586.7,415.06 400.83,-239.55 718.65,-685.44 234.81,-984.28 -175.51,-109.1 -415.06,-192.11 -559.73,-279.87 -320.19,-196.85 -154.17,-462.49 128.07,-564.47 763.71,-272.76 898.89,315.44 602.42,351.02 -78.26,9.48 -75.89,64.03 -11.85,47.43 68.78,-18.97 120.96,-45.07 158.9,-75.9zm804.03 1041.2c21.35,-47.43 -11.86,-59.29 -33.21,-16.6 -94.87,187.37 -208.71,417.43 -415.05,417.43 -101.99,0 -139.94,-87.75 -139.94,-182.63 0,-137.56 87.76,-301.21 130.45,-362.87 66.41,-94.87 168.4,-203.97 253.78,-203.97 45.06,0 68.78,33.2 47.43,116.21 -11.86,42.69 -47.43,90.13 -73.52,120.96 52.18,52.18 149.42,-47.44 158.9,-125.7 11.86,-97.24 -45.06,-163.65 -163.65,-163.65 -113.84,0 -230.06,68.78 -317.81,187.37 -170.77,230.05 -294.1,656.97 80.64,656.97 260.89,0 355.76,-196.86 471.98,-443.52zm768.45 0c23.71,-49.8 -11.86,-66.41 -33.21,-23.72 -49.81,101.99 -211.08,424.55 -320.19,417.43 -30.83,-2.37 -54.55,-28.46 -35.57,-125.7 30.83,-166.02 284.61,-611.91 284.61,-611.91 -80.64,-28.46 -324.93,120.96 -438.78,222.94 -64.03,54.55 -128.07,128.08 -192.11,208.72 194.48,-396.08 502.81,-977.16 607.17,-1083.89 -33.2,4.74 -68.78,-7.12 -99.61,-9.49 -75.9,-4.75 -113.85,49.81 -168.4,149.42 -230.06,424.55 -460.12,908.38 -652.23,1306.83 23.72,-16.6 45.06,-14.22 80.64,-16.6 49.81,2.38 71.15,0 87.75,-33.2 135.2,-263.26 251.41,-396.09 332.05,-469.61 182.62,-170.76 225.32,-106.73 168.4,-14.23 -66.41,106.73 -111.48,187.37 -130.45,249.04 -71.15,220.57 42.69,277.49 125.7,277.49 175.51,0 305.96,-279.87 384.23,-443.52zm801.65 -11.86c16.6,-35.57 -23.72,-45.06 -35.58,-21.34 -56.92,113.84 -180.25,407.94 -332.04,407.94 -56.92,0 -92.5,-23.72 -111.48,-59.3 90.13,-85.38 163.65,-196.85 199.23,-279.86 90.13,-211.09 64.04,-429.29 -116.21,-431.66 -161.29,-4.74 -358.14,180.25 -450.64,398.46 -90.13,211.08 -64.03,426.91 116.22,431.65 68.78,2.38 139.93,-30.83 206.34,-80.64 30.83,35.58 80.64,61.67 151.79,61.67 199.23,0 332.05,-336.79 372.37,-426.92zm-346.28 -305.95c85.39,26.09 73.53,194.48 -18.97,388.97 -21.35,45.06 -47.44,90.12 -73.53,128.07 2.38,-9.49 4.75,-16.6 4.75,-26.09 0,-37.95 -30.84,-71.15 -71.16,-71.15 -59.29,0 -80.64,47.43 -83.01,101.98 0,35.58 11.86,78.27 37.95,116.22 -56.92,47.43 -116.21,71.15 -161.28,59.29 -85.38,-26.09 -64.04,-192.11 28.46,-386.59 87.76,-187.37 234.81,-339.16 336.79,-310.7zm1140.82 305.95c16.6,-35.57 -23.72,-45.06 -35.58,-21.34 -56.92,113.84 -180.26,407.94 -332.05,407.94 -56.92,0 -92.5,-23.72 -111.47,-59.3 90.13,-85.38 163.65,-196.85 199.23,-279.86 90.12,-211.09 64.03,-429.29 -116.22,-431.66 -161.28,-4.74 -358.14,180.25 -450.63,398.46 -90.13,211.08 -64.04,426.91 116.21,431.65 68.78,2.38 139.94,-30.83 206.35,-80.64 30.83,35.58 80.63,61.67 151.79,61.67 199.22,0 332.04,-336.79 372.37,-426.92zm-346.28 -305.95c85.38,26.09 73.52,194.48 -18.98,388.97 -21.34,45.06 -47.43,90.12 -73.52,128.07 2.37,-9.49 4.74,-16.6 4.74,-26.09 0,-37.95 -30.83,-71.15 -71.15,-71.15 -59.29,0 -80.64,47.43 -83.01,101.98 0,35.58 11.86,78.27 37.95,116.22 -56.93,47.43 -116.22,71.15 -161.28,59.29 -85.38,-26.09 -64.04,-192.11 28.46,-386.59 87.75,-187.37 234.8,-339.16 336.79,-310.7zm924.98 -417.43c170.77,-379.48 -85.38,-412.68 -253.78,-130.45 -137.56,230.06 -286.98,571.59 -360.5,837.23 -40.32,142.31 -154.17,467.24 111.47,467.24 239.55,0 362.88,-320.19 422.17,-445.89 21.35,-47.44 -14.23,-52.18 -35.57,-11.86 -30.84,61.67 -97.25,189.74 -175.51,301.21 -125.71,175.51 -315.45,135.19 -244.3,-149.42 14.24,-59.29 37.95,-116.22 49.81,-156.54 232.43,-211.08 377.11,-467.23 486.21,-711.52zm-35.58 -35.58c-92.49,220.58 -263.26,500.44 -431.65,671.21 73.52,-189.74 258.52,-614.28 374.73,-777.93 128.08,-182.63 104.36,-2.38 56.92,106.72zm566.85 756.59c11.86,-23.71 -23.72,-37.95 -35.58,-14.23 -49.8,97.24 -123.33,244.29 -177.88,310.7 -59.29,71.15 -132.81,120.96 -213.45,109.1l-16.61 -2.37c92.5,-61.67 163.66,-170.77 168.4,-263.26 4.74,-104.36 -47.44,-189.74 -85.39,-279.87 -35.57,-85.38 -59.29,-249.03 49.81,-301.21 23.72,-11.86 52.18,-7.12 75.9,2.37 42.69,21.35 52.18,-18.98 9.48,-40.32 -23.71,-11.86 -52.18,-16.6 -87.75,-11.86 -83.01,11.86 -154.16,111.47 -196.86,203.97 -61.66,135.19 -139.93,289.35 -203.96,410.31 -113.85,4.75 -168.4,334.42 118.58,334.42 30.83,0 64.04,-9.49 97.24,-23.72 268.01,80.64 410.32,-237.17 498.07,-434.03zm-419.8 139.94c-7.11,125.7 -52.18,206.34 -104.36,246.66 -54.54,-26.09 -104.35,-92.5 -99.61,-182.63 2.37,-78.27 -49.81,-75.89 -49.81,-75.89 56.93,-104.36 158.91,-310.7 222.95,-438.78 -18.98,106.73 37.95,301.21 30.83,450.64zm-144.68 268c-14.22,7.12 -30.83,9.49 -47.43,9.49 -92.5,0 -123.33,-111.47 -47.44,-187.37 4.75,90.13 45.07,147.05 94.87,177.88z"/>
  </g>
 </g>
</svg>
